<svg xmlns="http://www.w3.org/2000/svg" viewBox="0 0 400 400" role="img" aria-labelledby="qrisPlaceholderTitle">
  <title id="qrisPlaceholderTitle">Contoh tampilan QRIS (bukan kode QR yang berfungsi)</title>

  <rect x="0" y="0" width="400" height="400" fill="#FFFCF9" />
  <rect x="16" y="16" width="368" height="368" fill="none" stroke="#DDD8D2" stroke-width="2" />

  <!-- Decorative, non-functional grid to suggest a QR code silhouette. -->
  <g fill="#DDD8D2">
    <rect x="48" y="48" width="64" height="64" />
    <rect x="288" y="48" width="64" height="64" />
    <rect x="48" y="288" width="64" height="64" />
    <rect x="72" y="72" width="16" height="16" fill="#FFFCF9" />
    <rect x="312" y="72" width="16" height="16" fill="#FFFCF9" />
    <rect x="72" y="312" width="16" height="16" fill="#FFFCF9" />

    <rect x="160" y="48" width="16" height="16" />
    <rect x="192" y="48" width="16" height="16" />
    <rect x="224" y="80" width="16" height="16" />
    <rect x="160" y="112" width="16" height="16" />
    <rect x="200" y="120" width="16" height="16" />
    <rect x="240" y="160" width="16" height="16" />
    <rect x="176" y="176" width="16" height="16" />
    <rect x="208" y="200" width="16" height="16" />
    <rect x="128" y="200" width="16" height="16" />
    <rect x="288" y="176" width="16" height="16" />
    <rect x="320" y="208" width="16" height="16" />
    <rect x="160" y="240" width="16" height="16" />
    <rect x="224" y="256" width="16" height="16" />
    <rect x="288" y="240" width="16" height="16" />
    <rect x="320" y="288" width="16" height="16" />
    <rect x="256" y="320" width="16" height="16" />
    <rect x="176" y="320" width="16" height="16" />
  </g>

  <rect x="60" y="180" width="280" height="40" fill="#88010F" />
  <text x="200" y="207" text-anchor="middle" font-family="sans-serif" font-size="20" font-weight="700" fill="#FFFCF9">
    CONTOH QRIS
  </text>

  <text x="200" y="248" text-anchor="middle" font-family="sans-serif" font-size="13" fill="#652622">
    Bukan kode QR yang berfungsi
  </text>
</svg>
